PathFileType	4	(X/Y/Z)	s07c0403.trc
DataRate	CameraRate	NumFrames	NumMarkers	Units	OrigDataRate	OrigDataStartFrame	OrigNumFrames
200	200	7	48	mm	200	500	2000
Frame#	Time	racr			lacr			c7			jug			rlel			rdr			llel			ldr			s2			lic			ric			lasi			rasi			rpsi			lpsi			rgt			lgt			rth1			rth2			rth3			rth4			rlfc			rmfc			rsh1			rsh2			rsh3			rsh4			rlmal			rcal			rtoe			rmt5			lth1			lth2			lth4			lth3			llfc			lmfc			lsh1			lsh2			lsh3			lsh4			llmal			lcal			ltoe			lmt5			SBIKE			LBIKE			RBIKE			
		X1	Y1	Z1	X2	Y2	Z2	X3	Y3	Z3	X4	Y4	Z4	X5	Y5	Z5	X6	Y6	Z6	X7	Y7	Z7	X8	Y8	Z8	X9	Y9	Z9	X10	Y10	Z10	X11	Y11	Z11	X12	Y12	Z12	X13	Y13	Z13	X14	Y14	Z14	X15	Y15	Z15	X16	Y16	Z16	X17	Y17	Z17	X18	Y18	Z18	X19	Y19	Z19	X20	Y20	Z20	X21	Y21	Z21	X22	Y22	Z22	X23	Y23	Z23	X24	Y24	Z24	X25	Y25	Z25	X26	Y26	Z26	X27	Y27	Z27	X28	Y28	Z28	X29	Y29	Z29	X30	Y30	Z30	X31	Y31	Z31	X32	Y32	Z32	X33	Y33	Z33	X34	Y34	Z34	X35	Y35	Z35	X36	Y36	Z36	X37	Y37	Z37	X38	Y38	Z38	X39	Y39	Z39	X40	Y40	Z40	X41	Y41	Z41	X42	Y42	Z42	X43	Y43	Z43	X44	Y44	Z44	X45	Y45	Z45	X46	Y46	Z46	X47	Y47	Z47	X48	Y48	Z48	
500	2.5000	651.183573	1496.477058	-33.162215	680.808896	1494.247291	-365.072573	640.164145	1565.604959	-191.472565	634.965565	1417.831555	-203.943134	514.929105	1156.582107	13.328607	688.310223	927.604511	-73.799484	550.050778	1195.485475	-535.623985	698.281761	949.489251	-459.472681	117.858492	1243.686018	-238.297085	274.637127	1290.399395	-391.246043	286.073750	1272.451599	-95.741507	299.688296	1207.448589	-372.768835	309.384948	1228.058303	-119.917109	146.411137	1279.387531	-189.515811	155.761967	1289.324089	-299.730878	248.555923	1159.464800	-53.287654	190.195419	1132.699854	-405.725005	374.923857	1068.436225	-60.037576	450.117475	1025.417129	-74.589714	497.067595	954.292211	-74.916222	470.467790	1049.326151	-95.990092	566.130680	841.319254	-113.955486	549.153184	834.114270	-220.789946	449.261239	765.043157	-85.364946	380.957132	710.557422	-103.230978	297.399577	689.095616	-91.169155	387.896097	699.767741	-141.247807	172.368888	633.269237	-82.887193	93.541174	656.913105	-112.352534	278.249080	433.025225	-131.461898	203.607537	467.293447	-58.383659	200.099753	1012.161459	-419.943442	233.606935	931.106740	-428.730360	270.010997	935.731417	-427.297726	223.975470	842.882332	-421.625711	253.175126	673.986465	-397.346878	249.302452	654.722562	-306.823650	192.242754	539.044107	-417.514967	190.548989	457.429923	-399.608361	138.300974	378.975115	-403.024314	195.132038	456.001673	-357.983768	87.778493	252.156471	-396.015875	14.343487	225.413851	-360.859826	297.139697	159.852752	-363.559977	211.996042	147.474101	-426.047284	-261.787678	964.694857	-238.058073	-82.884777	79.112879	-436.799429	-82.940639	79.299805	-39.403843	
501	2.5050	651.749093	1494.722537	-29.661774	681.968943	1494.765634	-361.442011	641.879189	1565.167896	-187.142943	635.229596	1417.587451	-200.893513	513.933157	1155.231569	13.813790	687.675678	927.040780	-74.223947	551.573197	1197.056179	-533.561265	698.652773	949.567319	-459.927202	117.885732	1247.630968	-240.103980	276.281862	1292.838071	-390.277557	284.047897	1275.633849	-96.234514	300.491175	1209.797452	-373.010416	308.042921	1231.605365	-120.226279	146.101849	1283.462933	-191.263750	156.419689	1292.885080	-301.403676	246.941330	1163.946163	-53.801637	190.580805	1135.608413	-406.219007	373.870506	1072.804992	-60.733462	449.105694	1030.088035	-75.385238	496.628699	958.976166	-76.445960	469.395864	1054.094580	-96.748726	566.271364	846.409250	-115.178247	548.574897	839.392595	-221.193927	450.251945	768.700823	-86.469487	382.749084	713.106684	-104.064389	299.245719	690.990090	-91.920737	389.534463	702.976259	-142.199735	174.874053	633.706993	-83.404139	95.369732	655.422160	-112.122788	286.019622	436.796070	-131.316330	210.123811	468.820774	-58.688761	199.014818	1015.175999	-419.980042	231.347386	933.611561	-428.199647	267.929259	938.018312	-426.940829	220.210116	845.524939	-421.199435	247.012526	676.402968	-396.184217	242.675320	657.143560	-305.739094	186.421195	541.740025	-416.776140	185.413456	459.658119	-399.347634	133.536528	381.268939	-402.720981	189.670146	458.590841	-357.083762	83.833691	254.402756	-395.779611	10.313305	229.888235	-361.186386	291.237767	156.976489	-363.467916	205.926921	146.797600	-425.840619	-261.823860	964.702476	-237.882259	-82.958644	79.256074	-436.872948	-82.944372	79.313578	-39.405986	
502	2.5100	652.221458	1493.155982	-26.226930	683.340211	1495.190649	-357.932044	643.614335	1564.603612	-183.030584	635.474397	1417.243450	-197.898881	513.158530	1154.022359	14.207518	687.172180	926.463995	-74.641227	553.197074	1198.407807	-531.507126	699.047956	949.540226	-460.406773	117.903913	1251.726261	-241.915749	277.929894	1295.378640	-390.601817	282.015958	1278.861739	-96.678430	301.333432	1212.185574	-373.117897	306.493809	1235.174156	-120.219553	145.665183	1287.780727	-193.129592	157.124176	1296.431984	-303.056318	245.172143	1168.247227	-54.303204	191.109346	1138.594564	-406.780754	372.537064	1077.321775	-61.498215	447.979619	1034.777064	-76.225343	495.660941	963.744960	-77.394294	468.011783	1058.878254	-97.445646	566.109935	851.349339	-116.300456	547.933560	844.391096	-222.246449	451.011056	772.236564	-87.489517	384.149248	715.691519	-104.987424	300.943414	692.586923	-92.764204	390.957433	705.870662	-143.255651	176.846039	634.120600	-83.874679	97.141944	653.482216	-112.003083	293.678292	440.501644	-131.561976	217.324814	470.372431	-58.373755	198.081459	1018.327649	-419.938102	229.308630	936.346247	-427.592423	265.952458	940.105632	-426.026769	216.809403	848.408342	-420.771759	241.075673	679.337332	-394.948093	236.315390	659.949451	-304.628665	180.931861	544.658851	-416.143931	180.483974	462.067267	-399.060198	129.144155	383.759436	-402.336736	184.776620	461.585225	-356.755228	80.125507	256.890777	-395.594889	6.298647	234.211229	-360.983108	285.285456	154.288954	-363.364154	199.750051	146.222694	-425.674832	-261.865933	964.713682	-237.808895	-82.635384	79.476710	-437.094011	-82.932267	79.303725	-39.394479	
503	2.5150	652.602630	1491.851401	-22.854130	684.771657	1495.404928	-354.375946	645.363498	1563.855570	-179.137470	635.705143	1416.593576	-194.850166	512.449502	1153.073586	14.569681	686.761860	925.986330	-75.065071	554.842827	1199.655152	-529.532402	699.426586	949.434796	-460.718751	117.866228	1255.938991	-243.676503	279.533871	1296.171647	-384.190217	279.930769	1282.313309	-96.965813	302.156700	1214.603125	-372.933702	304.943472	1238.860524	-120.147166	145.247920	1292.349026	-194.816743	157.913662	1300.205277	-304.638492	243.229775	1172.595550	-54.891429	191.614681	1141.722203	-407.278443	371.037518	1081.708765	-62.152656	446.653235	1039.370993	-76.990381	494.412960	968.503686	-78.304444	466.509656	1063.610624	-98.108261	565.625576	856.116161	-117.351843	547.132185	849.258021	-223.215167	451.427427	775.630445	-88.549012	385.198454	717.972351	-105.946941	302.546976	693.796486	-93.513189	392.172267	708.505232	-144.230099	178.943213	633.520811	-84.898016	98.301610	651.003894	-112.292624	301.294499	443.863140	-131.693170	224.180368	471.428274	-58.424750	197.373729	1021.602170	-419.908069	227.563997	939.195335	-426.932341	264.147019	942.522179	-424.827937	213.761122	851.502003	-420.275433	235.327315	682.302247	-393.948582	230.083287	663.019333	-303.466292	175.807559	547.632251	-415.485576	175.764465	464.629501	-398.756044	124.925916	386.460885	-402.061529	179.950069	464.535679	-356.308206	76.535034	259.542689	-395.500549	2.301711	238.213661	-360.284228	279.283678	151.871003	-363.221681	193.570701	146.002556	-425.376146	-261.882000	964.698580	-237.666263	-82.760328	79.123775	-436.747213	-82.943757	79.315696	-39.375459	
504	2.5200	653.005517	1490.731557	-19.539858	686.319274	1495.395594	-350.906278	647.160461	1563.036829	-175.410838	635.931274	1415.904360	-191.918754	511.853625	1152.222167	14.976263	686.411253	925.740359	-75.456745	556.468255	1200.777790	-527.489355	699.742815	949.271494	-460.930710	117.709629	1260.278290	-245.325320	281.443529	1300.296534	-390.508481	278.228610	1285.609655	-97.551398	302.955640	1217.037058	-372.708945	303.303958	1242.509871	-120.267825	145.143689	1296.838515	-196.574807	159.104486	1304.127576	-306.515574	241.041248	1176.891623	-55.239789	192.154305	1144.849361	-407.813377	369.321679	1086.045552	-62.696543	444.148028	1044.185473	-76.570461	492.917214	973.102181	-79.159211	464.838103	1068.112039	-98.757915	564.863068	860.750932	-118.248592	545.991732	853.956227	-224.059318	451.556038	778.751564	-89.437382	387.012538	720.289929	-106.362714	303.847799	694.789629	-94.242025	393.242212	710.767953	-145.112169	181.625110	633.041022	-84.732903	99.732524	648.018084	-112.479085	308.775508	447.007416	-131.782765	230.934105	472.279941	-58.401298	196.820269	1025.049128	-419.939859	226.073196	942.145997	-426.308932	262.690962	945.009071	-423.651111	211.076910	854.627739	-419.737955	230.214981	685.227295	-392.994462	224.163263	666.250918	-302.409128	170.994731	550.811336	-414.897162	171.256841	467.316598	-398.443873	120.864829	389.351528	-401.791184	175.423590	467.671167	-355.914348	72.973494	262.615785	-395.525184	-1.515717	242.844924	-360.097052	273.227218	149.856359	-363.060108	187.429350	146.108981	-425.122352	-261.894393	964.728687	-237.569822	-82.909313	79.277315	-436.809711	-82.948548	79.334589	-39.360237	
505	2.5250	653.427628	1489.719386	-16.401849	688.102995	1495.199055	-347.557776	648.959884	1562.033317	-171.982900	636.252886	1415.032108	-188.954983	511.168005	1151.447063	15.448326	686.196376	925.652711	-75.791853	558.004234	1201.698476	-525.565074	699.973427	949.044792	-460.913561	117.600285	1264.657916	-246.906440	283.237041	1302.711569	-390.470994	276.295981	1289.338012	-97.845803	303.733947	1219.448103	-372.162007	301.506853	1246.069786	-120.232147	144.335542	1301.387853	-198.139666	159.909321	1307.855039	-307.989536	238.596259	1181.123509	-55.623882	192.751259	1147.987064	-408.356008	367.364625	1090.167720	-62.989770	442.307477	1048.519270	-76.956439	491.088608	977.472477	-79.671461	462.856562	1072.527929	-99.112239	563.740731	865.107838	-118.997113	544.630735	858.421156	-224.644547	451.358707	781.707515	-90.219024	387.562953	722.164480	-106.990580	304.993090	695.332280	-94.843653	394.063800	712.743468	-145.757766	183.595449	631.691420	-85.541001	101.064965	644.436425	-112.724938	316.246415	449.970335	-131.824047	237.623869	472.791322	-58.410969	196.498007	1028.468472	-420.088201	224.870275	945.218620	-425.633734	261.441808	947.670807	-422.356451	208.686376	857.889384	-419.328514	225.306517	688.539258	-392.076968	218.545607	669.469823	-301.432620	166.541906	554.082552	-414.387730	166.961747	470.101026	-398.130633	116.995869	392.415633	-401.602889	171.072611	470.959946	-355.618280	69.311089	265.698223	-395.391457	-5.399099	247.624262	-360.029569	267.021603	148.149698	-362.953823	181.163008	146.573082	-424.911780	-261.882852	964.768305	-237.543899	-82.913183	79.320125	-436.824620	-82.954169	79.335118	-39.375011	
506	2.5300	653.906418	1488.728342	-13.414621	689.916343	1494.714577	-344.257188	650.845673	1560.923371	-168.781404	636.617367	1414.018824	-185.970057	510.369605	1150.798857	15.901948	686.111500	925.814955	-76.119106	559.516502	1202.409749	-523.748326	700.193953	948.682173	-460.851346	117.394357	1269.051768	-248.442741	284.892969	1305.055064	-390.358373	274.312558	1293.124499	-98.024049	304.320217	1221.719545	-371.673510	299.670865	1249.518281	-120.066962	143.999506	1305.771749	-199.721018	161.182131	1311.548709	-309.296986	235.968363	1185.188541	-55.917884	193.393377	1151.093962	-408.953627	365.056147	1094.046393	-63.152996	440.125720	1052.512117	-77.191480	488.932891	981.578297	-79.957438	460.624827	1076.622852	-99.256191	562.290986	869.214094	-119.478069	543.000103	862.532596	-225.056306	450.912555	784.357553	-90.773704	398.475662	725.431105	-102.217170	305.906195	695.641944	-95.326927	394.680923	714.316263	-146.239994	185.437915	630.060869	-86.254680	102.519041	640.349315	-112.991718	323.552552	452.760291	-131.630453	244.318940	473.089208	-58.385337	196.353337	1031.785679	-420.131638	223.924702	948.280323	-424.913722	260.465101	950.362481	-420.900593	206.530906	860.676090	-418.750952	220.876607	691.603237	-391.430936	213.406258	672.718994	-300.576847	162.690383	557.256017	-413.983025	162.879286	472.956525	-397.821017	113.221292	395.627690	-401.565944	166.980910	474.235622	-355.395991	65.498598	269.244144	-395.708192	-9.435984	252.282901	-360.055559	260.723785	147.071349	-362.760617	174.861957	147.284759	-424.568180	-261.880619	964.790085	-237.456347	-82.907041	79.330112	-436.797744	-82.954160	79.339425	-39.351672	
